<svg width="14" height="12" viewBox="0 0 14 12" fill="none" xmlns="http://www.w3.org/2000/svg">
<path d="M8.80025 0.500122L10.8002 4.00012M2.80025 4.00012L4.80025 0.500122M12.0802 4.00012H1.52025C1.37026 3.99708 1.22152 4.02783 1.08503 4.09008C0.948547 4.15233 0.827814 4.24449 0.731779 4.35973C0.635743 4.47498 0.566866 4.61035 0.530248 4.75582C0.493631 4.9013 0.490213 5.05315 0.520246 5.20012L1.62025 10.7001C1.667 10.9294 1.79267 11.135 1.97539 11.2812C2.15811 11.4274 2.3863 11.5048 2.62025 11.5001H10.9802C11.2142 11.5048 11.4424 11.4274 11.6251 11.2812C11.8078 11.135 11.9335 10.9294 11.9802 10.7001L13.0802 5.20012C13.1103 5.05315 13.1069 4.9013 13.0702 4.75582C13.0336 4.61035 12.9647 4.47498 12.8687 4.35973C12.7727 4.24449 12.6519 4.15233 12.5155 4.09008C12.379 4.02783 12.2302 3.99708 12.0802 4.00012Z" stroke="#60463A" stroke-linecap="round" stroke-linejoin="round"/>
</svg>
